<mxfile host="app.diagrams.net" modified="2023-04-16T11:07:27.316Z" agent="Mozilla/5.0 (Windows NT 10.0; Win64; x64) AppleWebKit/537.36 (KHTML, like Gecko) Chrome/112.0.0.0 Safari/537.36" etag="LMageVd2m3th3xyG6aQi" version="21.1.8" type="device">
  <diagram name="Page-1" id="FdU1NEX-5cpGAt7C6ZbX">
    <mxGraphModel dx="1562" dy="832" grid="1" gridSize="10" guides="1" tooltips="1" connect="1" arrows="1" fold="1" page="1" pageScale="1" pageWidth="850" pageHeight="1100" math="0" shadow="0">
      <root>
        <mxCell id="0" />
        <mxCell id="1" parent="0" />
        <mxCell id="BoGLa-P0DjGAfmS0jR-m-34" value="" style="rounded=0;whiteSpace=wrap;html=1;fillColor=#ffe6cc;strokeColor=#d79b00;" vertex="1" parent="1">
          <mxGeometry x="80" y="110" width="790" height="290" as="geometry" />
        </mxCell>
        <mxCell id="BoGLa-P0DjGAfmS0jR-m-33" value="" style="rounded=0;whiteSpace=wrap;html=1;fillColor=#dae8fc;strokeColor=#6c8ebf;" vertex="1" parent="1">
          <mxGeometry x="80" y="400" width="790" height="310" as="geometry" />
        </mxCell>
        <mxCell id="BoGLa-P0DjGAfmS0jR-m-32" value="" style="rounded=0;whiteSpace=wrap;html=1;fillColor=#d5e8d4;strokeColor=#82b366;" vertex="1" parent="1">
          <mxGeometry x="80" y="710" width="790" height="220" as="geometry" />
        </mxCell>
        <mxCell id="BoGLa-P0DjGAfmS0jR-m-1" value="&lt;b&gt;&lt;i&gt;&lt;font style=&quot;font-size: 14px;&quot;&gt;BaseModel&lt;/font&gt;&lt;/i&gt;&lt;/b&gt;" style="rounded=1;whiteSpace=wrap;html=1;" vertex="1" parent="1">
          <mxGeometry x="120" y="850" width="120" height="60" as="geometry" />
        </mxCell>
        <mxCell id="BoGLa-P0DjGAfmS0jR-m-2" value="&lt;b&gt;&lt;i&gt;&lt;font style=&quot;font-size: 14px;&quot;&gt;BaseEntity&lt;/font&gt;&lt;/i&gt;&lt;/b&gt;" style="rounded=1;whiteSpace=wrap;html=1;" vertex="1" parent="1">
          <mxGeometry x="120" y="585" width="120" height="60" as="geometry" />
        </mxCell>
        <mxCell id="BoGLa-P0DjGAfmS0jR-m-12" style="edgeStyle=orthogonalEdgeStyle;rounded=0;orthogonalLoop=1;jettySize=auto;html=1;entryX=0.25;entryY=1;entryDx=0;entryDy=0;endArrow=diamond;endFill=0;exitX=0.5;exitY=0;exitDx=0;exitDy=0;" edge="1" parent="1" source="BoGLa-P0DjGAfmS0jR-m-3" target="BoGLa-P0DjGAfmS0jR-m-11">
          <mxGeometry relative="1" as="geometry">
            <Array as="points">
              <mxPoint x="355" y="670" />
            </Array>
          </mxGeometry>
        </mxCell>
        <mxCell id="BoGLa-P0DjGAfmS0jR-m-3" value="&lt;b&gt;&lt;i&gt;&lt;font style=&quot;font-size: 14px;&quot;&gt;&amp;lt;&amp;lt;abstract&amp;gt;&amp;gt;&lt;br&gt;BaseMapper&lt;br&gt;&lt;/font&gt;&lt;/i&gt;&lt;/b&gt;" style="rounded=1;whiteSpace=wrap;html=1;" vertex="1" parent="1">
          <mxGeometry x="270" y="750" width="170" height="60" as="geometry" />
        </mxCell>
        <mxCell id="BoGLa-P0DjGAfmS0jR-m-6" style="edgeStyle=orthogonalEdgeStyle;rounded=0;orthogonalLoop=1;jettySize=auto;html=1;entryX=0.5;entryY=1;entryDx=0;entryDy=0;endArrow=block;endFill=0;" edge="1" parent="1" source="BoGLa-P0DjGAfmS0jR-m-5" target="BoGLa-P0DjGAfmS0jR-m-3">
          <mxGeometry relative="1" as="geometry" />
        </mxCell>
        <mxCell id="BoGLa-P0DjGAfmS0jR-m-5" value="&lt;b&gt;&lt;i&gt;&lt;font style=&quot;font-size: 14px;&quot;&gt;Mapper&lt;br&gt;&lt;/font&gt;&lt;/i&gt;&lt;/b&gt;" style="rounded=1;whiteSpace=wrap;html=1;" vertex="1" parent="1">
          <mxGeometry x="270" y="850" width="170" height="60" as="geometry" />
        </mxCell>
        <mxCell id="BoGLa-P0DjGAfmS0jR-m-13" style="edgeStyle=orthogonalEdgeStyle;rounded=0;orthogonalLoop=1;jettySize=auto;html=1;entryX=0.781;entryY=0.975;entryDx=0;entryDy=0;endArrow=diamond;endFill=0;exitX=0.5;exitY=0;exitDx=0;exitDy=0;entryPerimeter=0;" edge="1" parent="1" source="BoGLa-P0DjGAfmS0jR-m-7" target="BoGLa-P0DjGAfmS0jR-m-11">
          <mxGeometry relative="1" as="geometry">
            <Array as="points">
              <mxPoint x="557" y="750" />
            </Array>
          </mxGeometry>
        </mxCell>
        <mxCell id="BoGLa-P0DjGAfmS0jR-m-7" value="&lt;b&gt;&lt;i&gt;&lt;font style=&quot;font-size: 14px;&quot;&gt;&amp;lt;&amp;lt;abstract&amp;gt;&amp;gt;&lt;br&gt;BaseDataSource&lt;br&gt;&lt;/font&gt;&lt;/i&gt;&lt;/b&gt;" style="rounded=1;whiteSpace=wrap;html=1;" vertex="1" parent="1">
          <mxGeometry x="470" y="750" width="170" height="60" as="geometry" />
        </mxCell>
        <mxCell id="BoGLa-P0DjGAfmS0jR-m-9" value="" style="edgeStyle=orthogonalEdgeStyle;rounded=0;orthogonalLoop=1;jettySize=auto;html=1;endArrow=block;endFill=0;" edge="1" parent="1" source="BoGLa-P0DjGAfmS0jR-m-8" target="BoGLa-P0DjGAfmS0jR-m-7">
          <mxGeometry relative="1" as="geometry" />
        </mxCell>
        <mxCell id="BoGLa-P0DjGAfmS0jR-m-8" value="&lt;b&gt;&lt;i&gt;&lt;font style=&quot;font-size: 14px;&quot;&gt;DataSource&lt;br&gt;&lt;/font&gt;&lt;/i&gt;&lt;/b&gt;" style="rounded=1;whiteSpace=wrap;html=1;" vertex="1" parent="1">
          <mxGeometry x="470" y="850" width="170" height="60" as="geometry" />
        </mxCell>
        <mxCell id="BoGLa-P0DjGAfmS0jR-m-17" value="" style="edgeStyle=orthogonalEdgeStyle;rounded=0;orthogonalLoop=1;jettySize=auto;html=1;endArrow=diamond;endFill=0;" edge="1" parent="1" source="BoGLa-P0DjGAfmS0jR-m-10" target="BoGLa-P0DjGAfmS0jR-m-15">
          <mxGeometry relative="1" as="geometry">
            <Array as="points">
              <mxPoint x="455" y="560" />
              <mxPoint x="455" y="560" />
            </Array>
          </mxGeometry>
        </mxCell>
        <mxCell id="BoGLa-P0DjGAfmS0jR-m-10" value="&lt;b style=&quot;border-color: var(--border-color); font-size: 12px;&quot;&gt;&lt;i style=&quot;border-color: var(--border-color);&quot;&gt;&lt;font style=&quot;border-color: var(--border-color); font-size: 14px;&quot;&gt;&amp;lt;&amp;lt;abstract&amp;gt;&amp;gt;&lt;br style=&quot;border-color: var(--border-color);&quot;&gt;BaseRepository&lt;/font&gt;&lt;/i&gt;&lt;/b&gt;" style="swimlane;childLayout=stackLayout;horizontal=1;startSize=50;horizontalStack=0;rounded=1;fontSize=14;fontStyle=0;strokeWidth=2;resizeParent=0;resizeLast=1;shadow=0;dashed=0;align=center;arcSize=4;whiteSpace=wrap;html=1;fillStyle=auto;" vertex="1" parent="1">
          <mxGeometry x="260" y="570" width="380" height="90" as="geometry" />
        </mxCell>
        <mxCell id="BoGLa-P0DjGAfmS0jR-m-11" value="+mapper BaseMapper&lt;br&gt;+dataSource BaseDataSource" style="align=left;strokeColor=none;fillColor=none;spacingLeft=4;fontSize=12;verticalAlign=top;resizable=0;rotatable=0;part=1;html=1;" vertex="1" parent="BoGLa-P0DjGAfmS0jR-m-10">
          <mxGeometry y="50" width="380" height="40" as="geometry" />
        </mxCell>
        <mxCell id="BoGLa-P0DjGAfmS0jR-m-26" value="" style="edgeStyle=orthogonalEdgeStyle;rounded=0;orthogonalLoop=1;jettySize=auto;html=1;endArrow=diamond;endFill=0;" edge="1" parent="1" source="BoGLa-P0DjGAfmS0jR-m-14" target="BoGLa-P0DjGAfmS0jR-m-25">
          <mxGeometry relative="1" as="geometry" />
        </mxCell>
        <mxCell id="BoGLa-P0DjGAfmS0jR-m-14" value="&lt;b style=&quot;border-color: var(--border-color); font-size: 12px;&quot;&gt;&lt;i style=&quot;border-color: var(--border-color);&quot;&gt;&lt;font style=&quot;border-color: var(--border-color); font-size: 14px;&quot;&gt;&amp;lt;&amp;lt;abstract&amp;gt;&amp;gt;&lt;br style=&quot;border-color: var(--border-color);&quot;&gt;BaseService&lt;/font&gt;&lt;/i&gt;&lt;/b&gt;" style="swimlane;childLayout=stackLayout;horizontal=1;startSize=50;horizontalStack=0;rounded=1;fontSize=14;fontStyle=0;strokeWidth=2;resizeParent=0;resizeLast=1;shadow=0;dashed=0;align=center;arcSize=4;whiteSpace=wrap;html=1;" vertex="1" parent="1">
          <mxGeometry x="350" y="430" width="210" height="80" as="geometry" />
        </mxCell>
        <mxCell id="BoGLa-P0DjGAfmS0jR-m-15" value="+repository BaseRepository&lt;br&gt;" style="align=left;strokeColor=none;fillColor=none;spacingLeft=4;fontSize=12;verticalAlign=top;resizable=0;rotatable=0;part=1;html=1;" vertex="1" parent="BoGLa-P0DjGAfmS0jR-m-14">
          <mxGeometry y="50" width="210" height="30" as="geometry" />
        </mxCell>
        <mxCell id="BoGLa-P0DjGAfmS0jR-m-20" value="" style="edgeStyle=orthogonalEdgeStyle;rounded=0;orthogonalLoop=1;jettySize=auto;html=1;entryX=1;entryY=0.5;entryDx=0;entryDy=0;endArrow=block;endFill=0;exitX=0.5;exitY=0;exitDx=0;exitDy=0;" edge="1" parent="1" source="BoGLa-P0DjGAfmS0jR-m-18" target="BoGLa-P0DjGAfmS0jR-m-10">
          <mxGeometry relative="1" as="geometry" />
        </mxCell>
        <mxCell id="BoGLa-P0DjGAfmS0jR-m-18" value="&lt;b&gt;&lt;i&gt;&lt;font style=&quot;font-size: 14px;&quot;&gt;Repository&lt;br&gt;&lt;/font&gt;&lt;/i&gt;&lt;/b&gt;" style="rounded=1;whiteSpace=wrap;html=1;" vertex="1" parent="1">
          <mxGeometry x="680" y="750" width="170" height="60" as="geometry" />
        </mxCell>
        <mxCell id="BoGLa-P0DjGAfmS0jR-m-22" value="" style="edgeStyle=orthogonalEdgeStyle;rounded=0;orthogonalLoop=1;jettySize=auto;html=1;entryX=1;entryY=0.5;entryDx=0;entryDy=0;endArrow=block;endFill=0;" edge="1" parent="1" source="BoGLa-P0DjGAfmS0jR-m-21" target="BoGLa-P0DjGAfmS0jR-m-14">
          <mxGeometry relative="1" as="geometry" />
        </mxCell>
        <mxCell id="BoGLa-P0DjGAfmS0jR-m-21" value="&lt;b&gt;&lt;i&gt;&lt;font style=&quot;font-size: 14px;&quot;&gt;Service&lt;br&gt;&lt;/font&gt;&lt;/i&gt;&lt;/b&gt;" style="rounded=1;whiteSpace=wrap;html=1;" vertex="1" parent="1">
          <mxGeometry x="610" y="440" width="170" height="60" as="geometry" />
        </mxCell>
        <mxCell id="BoGLa-P0DjGAfmS0jR-m-29" value="" style="edgeStyle=orthogonalEdgeStyle;rounded=0;orthogonalLoop=1;jettySize=auto;html=1;endArrow=diamond;endFill=0;" edge="1" parent="1" source="BoGLa-P0DjGAfmS0jR-m-24" target="BoGLa-P0DjGAfmS0jR-m-28">
          <mxGeometry relative="1" as="geometry" />
        </mxCell>
        <mxCell id="BoGLa-P0DjGAfmS0jR-m-24" value="&lt;b&gt;&lt;i&gt;Bloc&lt;/i&gt;&lt;/b&gt;" style="swimlane;childLayout=stackLayout;horizontal=1;startSize=50;horizontalStack=0;rounded=1;fontSize=14;fontStyle=0;strokeWidth=2;resizeParent=0;resizeLast=1;shadow=0;dashed=0;align=center;arcSize=4;whiteSpace=wrap;html=1;" vertex="1" parent="1">
          <mxGeometry x="350" y="290" width="210" height="80" as="geometry" />
        </mxCell>
        <mxCell id="BoGLa-P0DjGAfmS0jR-m-25" value="+service BaseService" style="align=left;strokeColor=none;fillColor=none;spacingLeft=4;fontSize=12;verticalAlign=top;resizable=0;rotatable=0;part=1;html=1;" vertex="1" parent="BoGLa-P0DjGAfmS0jR-m-24">
          <mxGeometry y="50" width="210" height="30" as="geometry" />
        </mxCell>
        <mxCell id="BoGLa-P0DjGAfmS0jR-m-31" value="" style="edgeStyle=orthogonalEdgeStyle;rounded=0;orthogonalLoop=1;jettySize=auto;html=1;entryX=1;entryY=0.5;entryDx=0;entryDy=0;endArrow=diamond;endFill=0;" edge="1" parent="1" source="BoGLa-P0DjGAfmS0jR-m-30" target="BoGLa-P0DjGAfmS0jR-m-27">
          <mxGeometry relative="1" as="geometry" />
        </mxCell>
        <mxCell id="BoGLa-P0DjGAfmS0jR-m-30" value="&lt;b&gt;&lt;i&gt;&lt;font style=&quot;font-size: 14px;&quot;&gt;Widget&lt;br&gt;&lt;/font&gt;&lt;/i&gt;&lt;/b&gt;" style="rounded=1;whiteSpace=wrap;html=1;" vertex="1" parent="1">
          <mxGeometry x="610" y="155" width="170" height="60" as="geometry" />
        </mxCell>
        <mxCell id="BoGLa-P0DjGAfmS0jR-m-27" value="&lt;b&gt;&lt;i&gt;Page&lt;/i&gt;&lt;/b&gt;" style="swimlane;childLayout=stackLayout;horizontal=1;startSize=50;horizontalStack=0;rounded=1;fontSize=14;fontStyle=0;strokeWidth=2;resizeParent=0;resizeLast=1;shadow=0;dashed=0;align=center;arcSize=4;whiteSpace=wrap;html=1;" vertex="1" parent="1">
          <mxGeometry x="350" y="140" width="210" height="90" as="geometry" />
        </mxCell>
        <mxCell id="BoGLa-P0DjGAfmS0jR-m-28" value="+bloc Bloc&lt;br&gt;+widget Widget" style="align=left;strokeColor=none;fillColor=none;spacingLeft=4;fontSize=12;verticalAlign=top;resizable=0;rotatable=0;part=1;html=1;" vertex="1" parent="BoGLa-P0DjGAfmS0jR-m-27">
          <mxGeometry y="50" width="210" height="40" as="geometry" />
        </mxCell>
        <mxCell id="BoGLa-P0DjGAfmS0jR-m-35" value="Presentation" style="text;strokeColor=none;fillColor=none;html=1;fontSize=24;fontStyle=1;verticalAlign=middle;align=center;" vertex="1" parent="1">
          <mxGeometry x="90" y="120" width="160" height="40" as="geometry" />
        </mxCell>
        <mxCell id="BoGLa-P0DjGAfmS0jR-m-36" value="Domain" style="text;strokeColor=none;fillColor=none;html=1;fontSize=24;fontStyle=1;verticalAlign=middle;align=center;" vertex="1" parent="1">
          <mxGeometry x="90" y="410" width="100" height="40" as="geometry" />
        </mxCell>
        <mxCell id="BoGLa-P0DjGAfmS0jR-m-37" value="Data" style="text;strokeColor=none;fillColor=none;html=1;fontSize=24;fontStyle=1;verticalAlign=middle;align=center;" vertex="1" parent="1">
          <mxGeometry x="90" y="730" width="60" height="40" as="geometry" />
        </mxCell>
      </root>
    </mxGraphModel>
  </diagram>
</mxfile>
